<?xml version="1.0" encoding="utf-8"?>
<!-- Generator: Adobe Illustrator 22.0.0, SVG Export Plug-In . SVG Version: 6.00 Build 0)  -->
<svg version="1.1" id="Ebene_1" xmlns="http://www.w3.org/2000/svg" xmlns:xlink="http://www.w3.org/1999/xlink" x="0px" y="0px"
	 viewBox="0 0 141.7 141.7" style="enable-background:new 0 0 141.7 141.7;" xml:space="preserve">
<style type="text/css">
	.st0{fill:none;stroke:#7BB2A8;stroke-width:2;stroke-linecap:round;stroke-linejoin:round;}
</style>
<g>
	<polyline class="st0" points="40.4,89.8 38.4,82.3 35.8,74.6 37,69.2 34.2,66.7 34.2,63.6 33.1,60 33.1,56 33.1,48.7 34.2,42.5 
		34.9,36.2 36.5,31.8 38.3,31.8 39.9,33.3 42.9,36.8 47,38.4 49.9,39.9 51.9,43.2 54.5,46 58.3,43.1 62.6,41.9 67.3,41.8 70.8,42.5 
			"/>
	<polyline class="st0" points="70.8,112.4 66.4,112.4 58.4,110.5 52.2,107.5 46.1,101.8 	"/>
	<path class="st0" d="M40.5,60.6l0.1-3l-0.8-4.2l-2-6v-9.1l3.9,1.7l2.6,3.5l1.6,3.2l1.4,4.2l-2.7-0.8l0.2,4.2l-1.5-0.1L40.5,60.6z"
		/>
	<polyline class="st0" points="66.2,85.9 66.9,87.9 64.8,89.2 	"/>
	<polyline class="st0" points="70.8,108.1 67.5,107 65.3,105 63.7,102.2 63.7,99.2 62.5,95.1 	"/>
	<ellipse class="st0" cx="57.2" cy="67.5" rx="1.8" ry="1.8"/>
	<polyline class="st0" points="70.8,81.6 68,81.6 64.8,82.9 63.1,85.3 62.5,88.3 65.3,90.7 67.3,92.1 69.3,92.1 70.8,92.1 
		70.8,88.2 	"/>
	<path class="st0" d="M71.2,55.1l-4.6-3.9L62,49.5l-5.7,0.4l-6,4.5l-4,4.8l-4.7,6.9l-1,11.8l2.2-4.8l1,6.7l2.4-7.7l0.6,4.3l0.9-2.8
		l3.4-5l2.2-3.3l4.8-1.3l3.5,1.9l1.3,4.1l-5.8,4.5l-9.4,5.4l-6.3,6.3L39.2,96l1.5-1.9l0.9,7.2l1.9-2.3l0.9,6.1l3.2-5.5l0.4,4"/>
	<polyline class="st0" points="70.9,92.9 70.2,94.3 67.8,95.1 63.5,94.7 61.3,94.8 60.6,95.9 57.9,96.9 55.4,99.7 54.7,97.6 
		52.2,101.6 51.9,100 47.9,103.5 	"/>
	<polyline class="st0" points="101.3,89.8 103.3,82.3 105.9,74.6 104.7,69.2 107.5,66.7 107.5,63.6 108.6,60 108.6,56 108.6,48.7 
		107.5,42.5 106.8,36.2 105.2,31.8 103.4,31.8 101.8,33.3 98.8,36.8 94.7,38.4 91.8,39.9 89.8,43.2 87.2,46 83.4,43.1 79.1,41.9 
		74.4,41.8 70.9,42.5 	"/>
	<polyline class="st0" points="70.9,112.4 75.3,112.4 83.3,110.5 89.5,107.5 95.6,101.8 	"/>
	<path class="st0" d="M101.2,60.6l-0.1-3l0.8-4.2l2-6v-9.1L100,40l-2.6,3.5l-1.6,3.2L94.4,51l2.7-0.8l-0.2,4.2l1.5-0.1L101.2,60.6z"
		/>
	<polyline class="st0" points="75.5,85.9 74.8,87.9 76.9,89.2 	"/>
	<polyline class="st0" points="70.9,108.1 74.2,107 76.4,105 78,102.2 78,99.2 79.2,95.1 	"/>
	<ellipse class="st0" cx="84.5" cy="67.5" rx="1.8" ry="1.8"/>
	<polyline class="st0" points="70.9,81.6 73.7,81.6 76.9,82.9 78.6,85.3 79.2,88.3 76.4,90.7 74.4,92.1 72.4,92.1 70.9,92.1 
		70.9,88.2 	"/>
	<path class="st0" d="M93.8,103.5l0.4-4l3.2,5.5l0.8-6.1l1.9,2.3l0.8-7.2l1.5,1.9l-2.3-9.7L93.9,80l-9.4-5.3l-5.8-4.5l1.3-4.1
		l3.5-1.9l4.9,1.3l2.2,3.3l3.4,5l0.9,2.8l0.7-4.3l2.4,7.6l1-6.7l2.1,4.8l-1-11.8l-4.7-6.9l-4-4.8l-6-4.5l-5.7-0.4l-4.7,1.8l-3.8,3.9
		"/>
	<polyline class="st0" points="70.8,92.9 71.5,94.3 73.9,95.1 78.1,94.7 80.4,94.8 81.1,95.9 83.8,96.9 86.4,99.7 87,97.6 
		89.5,101.6 89.8,100 93.8,103.5 	"/>
</g>
</svg>
