<?xml version="1.0" encoding="utf-8"?>
<!-- Generator: Adobe Illustrator 22.0.0, SVG Export Plug-In . SVG Version: 6.00 Build 0)  -->
<svg version="1.1" id="Ebene_1" xmlns="http://www.w3.org/2000/svg" xmlns:xlink="http://www.w3.org/1999/xlink" x="0px" y="0px"
	 viewBox="0 0 141.7 141.7" style="enable-background:new 0 0 141.7 141.7;" xml:space="preserve">
<style type="text/css">
	.st0{fill:#FFFFFF;}
	.st1{fill:#7BB2A8;}
</style>
<rect x="128" y="57.8" class="st0" width="6.5" height="4.4"/>
<g>
	<path class="st1" d="M100.7,57c1.4-3.2,2-4.5,1.7-9.4c-0.6-7.9-3.9-14.8-8-19.5C84,16.4,56.4,16.6,44.5,27
		c-5.9,5.1-12,13-12.2,23.2C32,63,37.7,71.2,43,79.2c1.7,2.6,4,5.7,4.4,8.7c0.9,6.4-0.1,11.7-2.8,15.7c-1.9,2.8-3.6,5.3-5.4,7.6
		h42.7c-2.1-3.9-2.8-10.3,0.1-10.3c4.3,0.1,7.4,1.2,11.7,0.5c3.3-0.5,5.3-1.4,5.9-4.4c0.7-3.5-1.2-4-0.9-5.7
		c0.4-2.4,1.9-3.6,2.7-6.3c1-3.8-0.8-6,0.7-6.8c2.1-1.3,3.9-1.2,5.8-3C110.9,72.4,99,61.2,100.7,57z M66.7,36.3c0.7-1.2,0.4-2,0.7-2
		c0.1,0,0.4,0.2,0.8,0.5c1.6,1.3,2.2,4.2,1.1,5.7c-0.3,0.4-0.8,0.4-0.8,0.4c0.2,0,0.4,0,0.5,0c0.7-0.1,0.3-0.1,1-0.1
		c1.9,0,3.4,1.5,3.4,3.4c0,0.2,0,0.4,0,0.5c0,0.2-0.1,0.5-0.2,0.7c-0.1,0.3-0.2,0.5-0.4,0.7c-0.6,0.9-1.7,1.5-2.8,1.5
		c-0.1,0-0.2,0-0.2,0l-3.6,0c-1.7,0-3-0.6-3.9-1.5c-0.2-0.2-0.4-0.5-0.5-0.7c-0.1-0.2-0.2-0.5-0.3-0.7c-0.1-0.5-0.2-1-0.1-1.5
		C61.8,38.9,65.2,39,66.7,36.3z M59.6,46.1h1c0.2,0.3,0.4,0.7,0.7,1c1.1,1.3,2.9,2,4.9,2l3.6,0h0.1H70c2,0,3.7-1.2,4.5-2.9h1.8
		c2.1,0,3.8,1.7,3.8,3.8c0,0.5-0.1,1-0.3,1.4c-0.1,0.3-0.2,0.5-0.4,0.7c-0.2,0.3-0.4,0.5-0.6,0.7c-0.7,0.6-1.5,0.9-2.5,0.9H59.6
		c-1,0-1.8-0.4-2.5-0.9c-0.2-0.2-0.5-0.4-0.6-0.7c-0.2-0.2-0.3-0.5-0.4-0.7c-0.2-0.4-0.3-0.9-0.3-1.4C55.8,47.8,57.5,46.1,59.6,46.1
		z M81.6,62.2H54.3c-2.6,0-4.7-2.1-4.7-4.7s2.1-4.7,4.7-4.7h0.9c0.9,1.4,2.5,2.4,4.4,2.4h16.7c1.8,0,3.4-0.9,4.4-2.4h0.9
		c2.6,0,4.7,2.1,4.7,4.7S84.2,62.2,81.6,62.2z"/>
</g>
</svg>
