<?xml version="1.0" encoding="utf-8"?>
<!-- Generator: Adobe Illustrator 22.0.0, SVG Export Plug-In . SVG Version: 6.00 Build 0)  -->
<svg version="1.1" id="Ebene_1" xmlns="http://www.w3.org/2000/svg" xmlns:xlink="http://www.w3.org/1999/xlink" x="0px" y="0px"
	 viewBox="0 0 141.7 141.7" style="enable-background:new 0 0 141.7 141.7;" xml:space="preserve">
<style type="text/css">
	.st0{fill:#7BB2A8;}
</style>
<g>
	<g>
		<path class="st0" d="M70.9,26.4C52.2,26.4,37,41.8,37,60.6c0,9.4,3.6,22.3,9.4,33.2c2.9,5.5,6.4,10.5,10.4,14.2
			c4.1,3.7,8.8,6.3,14,6.3c5.2,0,10-2.6,14-6.3c4-3.7,7.5-8.7,10.4-14.2c5.8-10.9,9.4-23.8,9.4-33.2c0-9.6-3.9-18.2-10.3-24.4
			C87.9,29.4,78.1,26.5,70.9,26.4L70.9,26.4z M70.9,32.3c5.8,0,11.3,1.8,15.7,4.9c-2,4.1-5.1,7.4-10,10c-5.7,3.1-14.1,5.2-26.1,5.7
			c-1.5,0.1-4.3,0.5-7.1,2.3C45.9,42.1,57.2,32.3,70.9,32.3L70.9,32.3z M91.1,41c3.1,3.3,5.5,7.3,6.7,11.8c-1.3-0.6-2.5-0.9-3.3-1
			c-4.1-0.7-7.1-1.7-9.6-3.3C87.5,46.3,89.6,43.8,91.1,41L91.1,41z M79.9,52.1c3.7,2.9,8.2,4.6,13.8,5.5c5.7,1.1,5,7.9,4.5,10.8
			c-1.3,7.1-4,15.5-7.9,22.7c-2.7,5.1-5.9,9.6-9.3,12.6c-3.4,3.1-6.8,4.8-10.1,4.8c-3.4,0-6.7-1.7-10.1-4.8
			c-3.4-3.1-6.6-7.6-9.3-12.6c-3.8-7.2-6.6-15.5-7.9-22.6c-1.2-4.9,1.7-9.8,7.1-9.7c12.6-0.5,21.8-2.7,28.6-6.3
			C79.5,52.3,79.6,52.2,79.9,52.1L79.9,52.1z M58.7,65.5c-2.3,0.1-4.8,0.8-6.6,3c-1,1.2-0.8,3.2,0.4,4.2c0.6,0.5,1.3,0.6,2,0.6
			c1.6-0.5,2.8-2.2,4.8-2c1.6,0.1,2.4,1.1,4,1.9c0.8,0.2,1.6,0.1,2.3-0.3c1.3-0.8,1.7-2.8,0.9-4.1c-1.6-2.6-4.2-3.2-6.8-3.3
			C59.4,65.5,59,65.5,58.7,65.5L58.7,65.5z M82,65.5c-2.6,0.1-5.2,0.7-6.8,3.3c-0.9,1.3-0.5,3.3,0.8,4.1c0.7,0.4,1.5,0.5,2.3,0.3
			c1.6-0.8,2.3-1.8,3.9-1.9c2-0.2,3.3,1.5,4.8,2c0.7,0.1,1.4-0.1,2-0.6c1.3-1,1.5-3,0.5-4.2C87.6,66,84.6,65.4,82,65.5L82,65.5z
			 M79.5,87c-1,0-2,0.6-2.4,1.5c-1.3,1.8-3.9,2.7-6.8,2.6c-2.8-0.1-5.2-1.6-5.7-2.4c-0.5-0.9-1.6-1.5-2.6-1.5c-1,0-1.9,0.6-2.4,1.5
			c-0.5,0.9-0.5,2,0,2.8c2,3.6,6.1,5.1,10.4,5.3c4.2,0.2,9-1.1,11.8-5.1c0.7-0.8,0.9-2.1,0.4-3.1C81.7,87.7,80.6,87,79.5,87L79.5,87
			z"/>
	</g>
</g>
</svg>
