<?xml version="1.0" encoding="utf-8"?>
<!-- Generator: Adobe Illustrator 22.0.0, SVG Export Plug-In . SVG Version: 6.00 Build 0)  -->
<svg version="1.1" id="Ebene_1" xmlns="http://www.w3.org/2000/svg" xmlns:xlink="http://www.w3.org/1999/xlink" x="0px" y="0px"
	 viewBox="0 0 1000 1000" style="enable-background:new 0 0 1000 1000;" xml:space="preserve">
<style type="text/css">
	.st0{fill:#FFFFFF;}
	.st1{fill:#7BB2A8;}
</style>
<title>Logos-34_musical_ly</title>
<path class="st0" d="M500,0C223.9,0,0,223.9,0,500c0,276.1,223.9,500,500,500s500-223.9,500-500l0,0C1000,223.9,776.1,0,500,0z"/>
<path class="st1" d="M777.8,591.8l-2.9,1.3v1.4H664.1c-36.6,0-66.2-29.7-66.3-66.3v-74.3c0-8.7-7-15.7-15.7-15.7
	c-8.7,0-15.7,7-15.7,15.7v181.7c0,36.6-29.7,66.3-66.3,66.3c-36.6,0-66.3-29.7-66.3-66.3V364.4c0-8.7-7-15.7-15.7-15.7
	c-8.7,0-15.7,7-15.7,15.7v163.8c-0.1,36.5-29.7,66.1-66.3,66.2H225l-2.8-2.7v-44.9l2.8-2.7h111c8.7,0,15.7-7,15.7-15.7V364.4
	c0-36.6,29.7-66.3,66.3-66.3c36.6,0,66.3,29.7,66.3,66.3v271.3c0,8.7,7,15.7,15.7,15.7c8.7,0,15.7-7,15.7-15.7V453.9
	c0-36.6,29.7-66.3,66.3-66.3c36.6,0,66.3,29.7,66.3,66.3l0,0v74.3c0,8.7,7,15.7,15.7,15.7h110.7v1.3l2.9,1.4L777.8,591.8z"/>
</svg>
