<?xml version="1.0" encoding="utf-8"?>
<!-- Generator: Adobe Illustrator 22.0.0, SVG Export Plug-In . SVG Version: 6.00 Build 0)  -->
<svg version="1.1" id="Layer_1" xmlns="http://www.w3.org/2000/svg" xmlns:xlink="http://www.w3.org/1999/xlink" x="0px" y="0px"
	 viewBox="0 0 500 500" style="enable-background:new 0 0 500 500;" xml:space="preserve">
<style type="text/css">
	.st0{clip-path:url(#SVGID_2_);fill:#FFFFFF;}
	.st1{opacity:0.2;}
	.st2{clip-path:url(#SVGID_4_);}
	.st3{clip-path:url(#SVGID_6_);}
	.st4{fill:#7BB2A8;}
</style>
<title>Layer 1 copy</title>
<g>
	<defs>
		<path id="SVGID_1_" d="M46.2,250.5c0,105.8,80.6,192.7,183.6,202.8h40.3c103.1-10.1,183.6-97.1,183.6-202.8
			c0-112.6-91.2-203.8-203.8-203.8S46.2,137.9,46.2,250.5"/>
	</defs>
	<use xlink:href="#SVGID_1_"  style="overflow:visible;fill:#FFFFFF;"/>
	<clipPath id="SVGID_2_">
		<use xlink:href="#SVGID_1_"  style="overflow:visible;"/>
	</clipPath>
	<rect x="46.2" y="46.7" class="st0" width="407.6" height="406.6"/>
</g>
<g class="st1">
	<g>
		<defs>
			<rect id="SVGID_3_" x="109.2" y="153.2" width="290.1" height="179.9"/>
		</defs>
		<clipPath id="SVGID_4_">
			<use xlink:href="#SVGID_3_"  style="overflow:visible;"/>
		</clipPath>
		<g class="st2">
			<defs>
				<rect id="SVGID_5_" x="109.2" y="153.2" width="290.1" height="179.9"/>
			</defs>
			<clipPath id="SVGID_6_">
				<use xlink:href="#SVGID_5_"  style="overflow:visible;"/>
			</clipPath>
			<path class="st3" d="M134.2,236.2c74-22.5,166-11.6,228.9,27.1c4.6,2.8,7.2,7.5,7.5,12.5c0.1-5.4-2.5-10.8-7.5-13.8
				c-62.9-38.7-154.9-49.5-228.9-27.1c-7.4,2.2-11.9,9.3-11.2,16.7C123,244.7,127.3,238.3,134.2,236.2"/>
			<path class="st3" d="M141.3,300.5c77.6-17.7,144.2-10.1,197.9,22.7c3.6,2.2,5.7,6,6,9.9c0.1-4.4-2-8.8-6-11.3
				c-53.7-32.8-120.3-40.5-197.9-22.7c-6.2,1.4-10.2,7.1-9.8,13.2C131.7,306.7,135.6,301.8,141.3,300.5"/>
			<path class="st3" d="M122.7,167.3c72-21.9,191.7-17.6,267.3,27.3c5.6,3.3,8.8,9,9.3,15c0-6.5-3.3-12.8-9.3-16.4
				c-75.6-44.9-195.3-49.1-267.3-27.3c-8.8,2.7-14.3,11.2-13.4,20C109.1,177.7,114.3,169.9,122.7,167.3"/>
		</g>
	</g>
</g>
<path class="st4" d="M363.2,263.3c-62.9-38.7-154.9-49.5-228.9-27.1c-8.4,2.6-13.1,11.4-10.6,19.8c2.6,8.4,11.4,13.1,19.8,10.6
	c64.8-19.7,148.3-9.9,203.1,23.7c7.5,4.6,17.2,2.2,21.9-5.2C373,277.7,370.6,267.9,363.2,263.3"/>
<path class="st4" d="M390,194.6c-75.6-44.9-195.3-49.1-267.3-27.3c-10.1,3.1-15.8,13.7-12.7,23.8c3.1,10.1,13.7,15.8,23.8,12.7
	c62.7-19,171.1-15.4,236.8,23.6c9,5.4,20.7,2.4,26.1-6.7C402,211.7,399.1,200,390,194.6"/>
<path class="st4" d="M339.3,323.2c-53.7-32.8-120.3-40.5-197.9-22.7c-6.8,1.6-11.1,8.4-9.5,15.2c1.6,6.8,8.4,11.1,15.2,9.5
	c70.9-16.2,131.2-9.6,179,19.7c6,3.7,13.8,1.8,17.5-4.2C347.1,334.7,345.2,326.8,339.3,323.2"/>
</svg>
