<?xml version="1.0" encoding="utf-8"?>
<!-- Generator: Adobe Illustrator 22.0.0, SVG Export Plug-In . SVG Version: 6.00 Build 0)  -->
<svg version="1.1" id="Layer_1" xmlns="http://www.w3.org/2000/svg" xmlns:xlink="http://www.w3.org/1999/xlink" x="0px" y="0px"
	 viewBox="0 0 500 500" style="enable-background:new 0 0 500 500;" xml:space="preserve">
<style type="text/css">
	.st0{fill:#FFFFFF;}
	.st1{clip-path:url(#SVGID_3_);fill:#FFFFFF;}
	.st2{opacity:0.2;}
	.st3{clip-path:url(#SVGID_5_);}
	.st4{clip-path:url(#SVGID_9_);}
	.st5{clip-path:url(#SVGID_10_);}
	.st6{clip-path:url(#SVGID_11_);}
	.st7{fill:#7BB2A8;}
</style>
<title>Layer 1 copy</title>
<g>
	<g>
		<path id="SVGID_1_" class="st0" d="M0,250.6C0,380.4,98.9,487,225.3,499.4h49.4C401.2,487,500,380.3,500,250.6
			C500,112.4,388.1,0.5,249.9,0.5S0,112.4,0,250.6"/>
	</g>
	<g>
		<defs>
			<path id="SVGID_2_" d="M0,250.6C0,380.4,98.9,487,225.3,499.4h49.4C401.2,487,500,380.3,500,250.6C500,112.4,388.1,0.5,249.9,0.5
				S0,112.4,0,250.6"/>
		</defs>
		<clipPath id="SVGID_3_">
			<use xlink:href="#SVGID_2_"  style="overflow:visible;"/>
		</clipPath>
		<rect y="0.5" class="st1" width="500.1" height="498.9"/>
	</g>
</g>
<g>
	<g>
		<g class="st2">
			<defs>
				<rect id="SVGID_4_" x="77.3" y="131.2" class="st2" width="356" height="220.7"/>
			</defs>
			<clipPath id="SVGID_5_">
				<use xlink:href="#SVGID_4_"  style="overflow:visible;"/>
			</clipPath>
			<g class="st3">
				<g>
					<defs>
						<rect id="SVGID_6_" x="77.3" y="131.2" width="356" height="220.7"/>
					</defs>
					<defs>
						<rect id="SVGID_7_" x="77.3" y="131.2" width="356" height="220.7"/>
					</defs>
					<defs>
						<rect id="SVGID_8_" x="77.3" y="131.2" width="356" height="220.7"/>
					</defs>
					<clipPath id="SVGID_9_">
						<use xlink:href="#SVGID_6_"  style="overflow:visible;"/>
					</clipPath>
					<clipPath id="SVGID_10_" class="st4">
						<use xlink:href="#SVGID_7_"  style="overflow:visible;"/>
					</clipPath>
					<clipPath id="SVGID_11_" class="st5">
						<use xlink:href="#SVGID_8_"  style="overflow:visible;"/>
					</clipPath>
					<path class="st6" d="M108,233c90.8-27.6,203.7-14.2,280.9,33.3c5.6,3.4,8.8,9.2,9.2,15.3c0.1-6.6-3.1-13.3-9.2-16.9
						c-77.2-47.5-190.1-60.7-280.9-33.3c-9.1,2.7-14.6,11.4-13.7,20.5C94.2,243.4,99.5,235.6,108,233"/>
					<path class="st6" d="M116.7,311.9c95.2-21.7,176.9-12.4,242.8,27.9c4.4,2.7,7,7.4,7.4,12.1c0.1-5.4-2.5-10.8-7.4-13.9
						c-65.9-40.2-147.6-49.7-242.8-27.9c-7.6,1.7-12.5,8.7-12,16.2C104.9,319.5,109.7,313.5,116.7,311.9"/>
					<path class="st6" d="M93.9,148.5c88.3-26.9,235.2-21.6,328,33.5c6.9,4,10.8,11,11.4,18.4c0-8-4-15.7-11.4-20.1
						c-92.8-55.1-239.6-60.2-328-33.5c-10.8,3.3-17.5,13.7-16.4,24.5C77.2,161.2,83.6,151.7,93.9,148.5"/>
				</g>
			</g>
		</g>
		<path class="st7" d="M389,266.3c-77.2-47.5-190.1-60.7-280.9-33.3c-10.3,3.2-16.1,14-13,24.3c3.2,10.3,14,16.1,24.3,13
			c79.5-24.2,182-12.1,249.2,29.1c9.2,5.6,21.1,2.7,26.9-6.4C401,283.9,398,271.9,389,266.3"/>
		<path class="st7" d="M421.8,182c-92.8-55.1-239.6-60.2-328-33.5c-12.4,3.8-19.4,16.8-15.6,29.2c3.8,12.4,16.8,19.4,29.2,15.6
			c76.9-23.3,209.9-18.9,290.6,29c11,6.6,25.4,2.9,32-8.2C436.6,203,433,188.6,421.8,182"/>
		<path class="st7" d="M359.6,339.8c-65.9-40.2-147.6-49.7-242.8-27.9c-8.3,2-13.6,10.3-11.7,18.7c2,8.3,10.3,13.6,18.7,11.7
			c87-19.9,161-11.8,219.6,24.2c7.4,4.5,16.9,2.2,21.5-5.2C369.2,353.9,366.9,344.2,359.6,339.8"/>
	</g>
</g>
</svg>
