<?xml version="1.0" encoding="utf-8"?>
<!-- Generator: Adobe Illustrator 22.0.0, SVG Export Plug-In . SVG Version: 6.00 Build 0)  -->
<svg version="1.1" id="Ebene_1" xmlns="http://www.w3.org/2000/svg" xmlns:xlink="http://www.w3.org/1999/xlink" x="0px" y="0px"
	 viewBox="0 0 512 512" style="enable-background:new 0 0 512 512;" xml:space="preserve">
<style type="text/css">
	.st0{fill:#FDFFFE;}
</style>
<path id="twitter-icon" class="st0" d="M512,97.3c-18.9,8.3-39,14-60.3,16.5c21.6-13.1,38.4-33.6,46.2-58.2
	c-20.3,12.1-42.8,20.8-66.7,25.5C412,60.8,384.7,48,354.5,48c-67.9,0-117.7,63.3-102.3,129c-87.3-4.4-164.7-46.2-216.5-109.7
	c-27.5,47.2-14.3,109,32.6,140.2c-17.3-0.5-33.4-5.2-47.6-13.2c-1.1,48.7,33.7,94.2,84.3,104.3c-14.8,4-30.9,5-47.5,1.7
	c13.4,41.8,52.2,72.1,98.2,73c-44.1,34.6-99.8,50.1-155.5,43.5C46.6,446.6,101.8,464,161.2,464c195,0,305.3-164.8,298.7-312.5
	C480,136.9,497.9,118.3,512,97.3z"/>
</svg>
